<?xml version="1.0" standalone="no"?>
<!DOCTYPE svg PUBLIC "-//W3C//DTD SVG 20010904//EN"
 "http://www.w3.org/TR/2001/REC-SVG-20010904/DTD/svg10.dtd">
<svg version="1.0" xmlns="http://www.w3.org/2000/svg"
 width="953.000000pt" height="789.000000pt" viewBox="0 0 953.000000 789.000000"
 preserveAspectRatio="xMidYMid meet">

<g transform="translate(0.000000,789.000000) scale(0.100000,-0.100000)"
fill="#000000" stroke="none">
<path d="M0 3945 l0 -3945 4765 0 4765 0 0 3945 0 3945 -4765 0 -4765 0 0
-3945z m5480 2314 c45 -10 382 -13 970 -9 328 1 527 -13 657 -50 85 -23 254
-79 269 -88 80 -50 112 -75 205 -158 72 -65 180 -261 206 -374 34 -153 11
-516 -37 -582 -11 -15 -31 -52 -44 -82 -14 -31 -37 -72 -52 -92 -22 -29 -29
-50 -32 -99 l-4 -63 -42 -6 c-55 -7 -384 -1 -393 7 -3 4 1 13 11 20 24 17 51
151 67 324 13 145 6 267 -24 448 -24 148 -194 403 -307 460 -19 9 -44 25 -55
35 -29 26 -188 86 -265 100 -44 8 -112 10 -210 5 l-145 -7 -36 -37 c-33 -33
-37 -43 -42 -106 -8 -95 -1 -1176 8 -1197 3 -9 21 -22 38 -29 31 -12 31 -12
-46 -25 -85 -14 -480 -12 -727 4 -123 8 -118 16 6 12 80 -2 132 15 141 48 14
49 10 1150 -5 1217 -15 75 -59 163 -92 187 -14 10 -68 26 -120 37 -180 37
-195 42 -198 75 -2 16 2 32 10 37 16 10 225 1 288 -12z m-2045 -37 c98 -12
239 -38 332 -62 89 -22 167 -40 174 -40 7 0 20 -7 29 -15 10 -9 54 -29 100
-45 45 -16 87 -34 95 -40 7 -6 41 -24 76 -41 35 -17 76 -42 92 -55 16 -13 33
-24 39 -24 28 0 272 -237 343 -334 24 -33 58 -79 74 -101 52 -69 191 -360 191
-399 0 -9 16 -65 35 -124 18 -59 37 -132 40 -163 3 -31 12 -65 19 -74 7 -10
39 -24 72 -31 56 -12 57 -12 19 -14 -22 0 -67 -7 -101 -14 -70 -15 -640 -11
-733 5 -30 5 -124 9 -210 9 -85 0 -152 2 -149 5 3 3 73 6 156 6 208 0 232 10
232 103 0 45 -40 188 -66 236 -7 14 -29 60 -48 103 -40 89 -94 181 -146 248
-90 117 -124 156 -156 180 -19 15 -44 38 -55 53 -26 33 -169 140 -224 168 -22
12 -58 33 -81 49 -54 37 -207 107 -264 121 -25 6 -61 19 -80 28 -19 10 -69 23
-110 29 -41 7 -98 19 -125 26 -158 44 -639 64 -747 32 -64 -19 -120 -74 -133
-130 -4 -18 -9 -275 -11 -572 -4 -546 0 -628 32 -660 14 -13 13 -16 -3 -22
-22 -9 -609 -11 -617 -2 -3 3 -2 30 4 59 13 69 13 1169 -1 1230 -5 25 -12 62
-16 83 -8 51 -85 116 -195 163 -38 16 -50 33 -25 35 6 1 217 1 467 1 250 1
489 4 530 8 41 3 278 5 525 4 390 -1 473 -4 620 -22z m348 -1559 c-35 -2 -91
-2 -125 0 -35 2 -7 3 62 3 69 0 97 -1 63 -3z m1382 -622 c136 -6 285 -5 390 1
178 10 613 5 653 -7 16 -5 20 -10 11 -15 -45 -28 -56 -241 -40 -770 9 -305 12
-344 34 -434 42 -164 104 -205 337 -220 80 -6 77 -4 50 -23 -32 -23 -37 -23
-445 -28 -192 -2 -460 -9 -595 -15 -142 -6 -258 -7 -275 -2 -30 9 -61 50 -47
64 5 5 43 12 87 18 90 11 168 49 201 98 49 72 83 478 84 998 0 214 -1 222 -22
250 -13 16 -29 34 -37 40 -22 17 -138 24 -304 17 l-151 -6 -42 -39 c-39 -36
-45 -48 -64 -131 -12 -51 -33 -114 -47 -142 -14 -27 -34 -74 -44 -103 -10 -29
-27 -66 -39 -81 -11 -16 -20 -33 -20 -38 0 -14 -89 -154 -149 -232 -71 -95
-219 -251 -237 -251 -7 0 -21 -11 -30 -25 -37 -57 -338 -231 -493 -286 -30
-10 -60 -24 -67 -30 -7 -6 -75 -26 -151 -44 -319 -78 -671 -102 -973 -66 -321
39 -392 49 -403 60 -8 8 -8 11 1 11 7 0 12 6 12 14 0 32 27 36 251 37 342 2
604 24 708 61 31 11 95 28 143 38 48 10 100 27 115 37 16 11 46 25 68 31 22 6
63 26 90 44 28 18 71 44 96 58 26 14 66 39 90 55 69 47 236 223 271 284 68
120 130 258 154 340 35 121 68 295 61 323 -4 13 -23 37 -44 53 -38 30 -38 30
-203 36 -178 6 -171 8 45 14 77 3 205 8 285 13 154 9 327 7 685 -7z m2093 -35
c43 -22 171 -147 165 -162 -3 -8 10 -29 31 -50 20 -20 36 -39 36 -42 0 -3 12
-18 26 -33 32 -33 38 -104 10 -124 -24 -18 -21 -95 4 -128 24 -30 25 -46 4
-61 -14 -11 -13 -15 10 -43 l25 -30 -21 -62 c-17 -51 -19 -67 -10 -82 7 -10
12 -24 12 -30 0 -6 18 -29 40 -51 45 -45 45 -44 28 -81 -15 -31 -28 -30 -45 4
-7 13 -17 23 -22 22 -4 -1 -13 16 -20 37 -6 22 -16 40 -21 40 -19 0 -79 46
-80 61 0 15 -27 49 -122 152 -87 96 -188 223 -242 307 -16 25 -50 70 -75 100
-26 30 -62 81 -81 112 -19 32 -46 72 -62 90 -27 32 -35 58 -21 72 11 11 405
-5 431 -18z m-5338 -86 c0 -10 -14 -14 -40 -10 -22 3 -24 8 -10 25 9 11 17 12
31 4 10 -5 19 -14 19 -19z m109 11 c21 -14 33 -222 27 -486 -3 -121 -5 -221
-6 -222 0 -2 -7 -3 -16 -3 -14 0 -15 10 -9 79 5 62 4 85 -9 108 -13 26 -14 60
-9 222 6 173 5 193 -11 210 -10 11 -15 24 -12 30 4 5 -7 20 -25 33 l-31 23 29
6 c42 10 57 10 72 0z m-394 -51 c4 -6 11 -8 16 -5 5 4 9 2 9 -3 0 -11 -36 -23
-44 -14 -10 9 -7 32 3 32 6 0 13 -5 16 -10z m52 -302 c-3 -8 -6 -5 -6 6 -1 11
2 17 5 13 3 -3 4 -12 1 -19z m6053 -151 c0 -8 -7 -20 -15 -27 -21 -18 -19 -40
5 -40 11 0 20 -5 20 -10 0 -6 12 -24 27 -40 26 -30 40 -80 22 -80 -5 0 -12 -8
-16 -17 -21 -61 -46 -103 -59 -103 -10 0 -14 -6 -11 -14 4 -10 1 -13 -8 -10
-20 8 -27 49 -26 155 1 53 -3 109 -10 125 -23 59 -22 91 3 108 21 15 24 15 45
-9 13 -13 23 -31 23 -38z m-6030 -36 c-1 -38 -21 -126 -32 -136 -21 -22 -37
150 -17 186 10 20 11 20 30 3 12 -11 19 -30 19 -53z m231 13 c18 -22 1 -35
-39 -28 -53 9 -58 15 -32 34 25 19 52 16 71 -6z m9 -244 c0 -4 -7 -10 -15 -14
-11 -4 -15 2 -15 21 0 21 2 24 15 13 8 -7 15 -16 15 -20z m-45 1 c0 -8 -8 -15
-17 -17 -12 -1 -18 4 -18 18 0 13 6 18 18 16 9 -2 17 -10 17 -17z m-308 -118
c5 -31 -16 -70 -31 -56 -8 9 -8 127 1 150 7 18 14 -4 30 -94z m6419 50 c-1
-41 -36 -62 -36 -23 0 11 5 20 10 20 6 0 10 7 10 15 0 8 4 15 9 15 4 0 8 -12
7 -27z m-5941 -80 c30 -45 31 -62 5 -96 -22 -28 -25 -37 -10 -37 6 0 10 8 10
17 0 27 18 2 23 -32 2 -22 12 -34 35 -45 17 -8 37 -22 44 -31 16 -20 70 -39
109 -39 16 0 29 -3 29 -7 0 -9 -49 -33 -67 -33 -9 0 -13 -14 -13 -40 0 -22 -4
-40 -9 -40 -5 0 -11 -9 -14 -20 -4 -16 -14 -20 -51 -20 -25 0 -46 2 -46 4 0 2
-3 11 -6 20 -4 10 -1 16 9 16 8 0 18 6 20 13 4 9 8 8 16 -3 9 -13 11 -13 11 2
0 10 10 20 25 24 18 4 25 13 25 30 0 13 -6 24 -12 24 -7 1 -28 14 -47 30 -18
15 -40 26 -47 23 -8 -3 -17 2 -20 11 -3 9 -12 16 -19 16 -7 0 -15 7 -19 15 -3
8 -17 15 -31 15 -18 0 -25 5 -25 20 0 11 5 20 10 20 6 0 10 15 10 34 0 19 -4
38 -10 41 -13 8 -13 65 -1 65 5 0 13 9 16 20 9 29 21 25 50 -17z m5875 6 c0
-5 -11 -9 -25 -9 -26 0 -34 15 -12 23 16 5 37 -3 37 -14z m-6169 4 c1 -5 3
-34 4 -67 3 -41 9 -65 23 -80 11 -11 25 -40 31 -63 6 -24 16 -61 21 -83 9 -34
8 -44 -7 -64 -17 -23 -65 -38 -90 -29 -19 7 -16 63 4 85 14 16 15 24 4 60 -7
23 -22 49 -34 58 -19 16 -20 20 -7 51 8 19 19 37 24 41 6 4 1 8 -11 8 -28 0
-30 16 -3 25 17 5 26 29 21 58 0 4 4 7 9 7 6 0 11 -3 11 -7z m5887 -45 c20
-20 14 -30 -15 -26 -32 4 -46 38 -16 38 11 0 24 -5 31 -12z m252 -8 c0 -18 16
-30 95 -69 11 -5 32 -12 46 -15 18 -4 29 -14 33 -31 4 -14 13 -25 20 -25 15 0
30 -45 20 -61 -3 -6 -16 -14 -28 -19 -22 -8 -27 -36 -11 -73 11 -26 -7 -39
-51 -35 -29 2 -41 9 -51 28 -15 30 -5 42 36 44 16 1 34 9 40 18 9 14 5 21 -19
38 -17 12 -30 28 -30 36 0 8 -4 14 -8 14 -4 0 -12 15 -17 32 -8 27 -16 34 -45
39 -43 6 -60 16 -60 33 0 8 -7 19 -16 27 -14 12 -14 14 2 26 26 19 44 16 44
-7z m-6290 -94 c0 -56 3 -130 6 -162 l6 -59 -40 -21 c-24 -13 -50 -20 -66 -17
-14 3 -26 7 -26 9 0 2 11 37 25 78 14 41 25 89 25 107 0 19 8 42 20 54 11 11
21 32 22 45 2 14 7 28 13 32 6 4 2 13 -10 22 -20 15 -20 15 3 16 21 0 22 -3
22 -104z m6506 65 c-3 -4 7 -8 22 -8 54 0 82 -12 82 -36 0 -22 -2 -23 -57 -16
-62 7 -93 17 -93 28 0 15 32 51 41 45 5 -3 7 -9 5 -13z m-361 -81 c3 -5 -3
-10 -15 -10 -12 0 -18 5 -15 10 3 6 10 10 15 10 5 0 12 -4 15 -10z m123 -48
c21 -27 15 -61 -13 -74 -22 -10 -29 -9 -45 8 -11 10 -22 33 -26 51 -5 25 -3
32 12 36 27 6 57 -2 72 -21z m355 -72 c32 -26 51 -25 69 1 12 19 17 20 36 10
45 -24 20 -106 -38 -126 -30 -11 -40 -10 -73 7 -29 14 -38 24 -36 41 2 12 -3
32 -9 45 -24 42 7 56 51 22z m-6273 -54 c0 -8 8 -17 18 -21 16 -6 16 -7 -1
-19 -23 -18 -69 -9 -65 13 1 9 -1 22 -5 29 -6 8 0 12 22 12 20 0 31 -5 31 -14z
m6575 -40 c11 -8 16 -20 12 -29 -3 -9 -1 -18 6 -21 7 -2 -21 -5 -60 -5 -70 -1
-73 0 -73 22 0 13 5 28 12 35 16 16 80 15 103 -2z m-4442 -628 l48 -33 -6 -54
c-9 -74 -13 -81 -46 -81 -16 0 -45 -7 -64 -14 -34 -15 -35 -17 -35 -70 0 -43
-3 -56 -15 -56 -8 0 -15 -9 -15 -20 0 -11 5 -20 11 -20 14 0 5 -233 -10 -238
-14 -5 -14 -35 0 -49 10 -10 14 -73 24 -425 6 -212 23 -252 95 -228 35 12 45
11 79 -5 49 -21 99 -14 138 20 31 26 31 29 23 230 -4 103 7 135 45 135 43 0
49 -27 49 -266 1 -189 -1 -225 -15 -240 -9 -11 -19 -27 -22 -37 -8 -23 -47
-37 -105 -37 -26 0 -55 -7 -66 -15 -16 -12 -24 -12 -57 2 -42 16 -96 18 -256
9 -97 -5 -103 -5 -118 16 -39 57 2 172 72 199 13 5 26 22 31 43 13 44 -5 965
-19 1019 -10 37 -11 38 -52 35 -39 -3 -43 -1 -58 31 -14 30 -14 41 -4 81 24
90 21 88 137 85 56 -2 111 1 123 5 31 13 37 12 88 -22z m-1628 8 c17 -1 36 -5
42 -9 7 -5 28 -5 48 -1 31 5 38 2 67 -29 77 -81 109 -129 141 -213 40 -102 52
-157 66 -304 21 -218 22 -323 6 -436 -39 -268 -85 -398 -149 -425 -15 -7 -32
-24 -38 -39 -11 -33 -71 -56 -118 -46 -20 4 -42 0 -62 -10 -24 -12 -44 -15
-82 -9 -28 4 -72 7 -97 6 -54 -2 -63 6 -78 76 -14 69 -3 97 44 113 22 7 40 21
45 35 9 22 -4 804 -15 925 -9 99 -11 103 -60 140 -42 32 -45 37 -45 80 0 46
30 103 71 137 17 14 99 22 149 15 19 -2 49 -5 65 -6z m2695 -11 c7 -8 16 -15
21 -15 5 0 9 7 9 15 0 22 21 18 27 -5 5 -19 6 -20 19 -3 13 17 15 17 32 -3
l18 -21 17 24 c18 22 19 23 42 6 22 -17 45 -78 45 -122 0 -11 -10 -32 -23 -47
-20 -23 -32 -27 -82 -28 -42 -1 -60 -6 -63 -16 -3 -8 -12 -23 -21 -33 -12 -15
-16 -47 -19 -150 -5 -194 -6 -403 -3 -657 3 -281 1 -275 106 -266 69 6 74 5
89 -16 31 -43 13 -156 -29 -184 -18 -12 -31 -13 -62 -5 -45 11 -325 16 -366 6
-59 -16 -88 65 -53 149 18 44 30 50 60 31 26 -17 64 -13 103 12 47 31 49 57
48 528 -2 501 -7 574 -41 606 -20 19 -24 20 -30 6 -9 -25 -84 -32 -123 -13
-32 17 -36 28 -32 81 4 38 36 101 56 109 9 3 47 6 83 7 37 0 85 4 107 8 22 5
43 9 46 10 4 0 12 -6 19 -14z m2893 -12 c21 -3 56 0 77 7 68 23 187 -18 213
-74 49 -106 68 -192 74 -331 5 -140 0 -173 -30 -211 -31 -40 -67 -133 -67
-174 0 -19 6 -64 14 -100 8 -36 19 -121 25 -190 9 -122 29 -205 47 -205 5 0
16 23 25 50 13 39 20 49 35 47 10 -2 24 -10 31 -19 16 -21 27 -97 18 -131 -3
-15 -9 -42 -12 -59 -3 -18 -9 -33 -14 -33 -5 0 -9 -8 -9 -18 0 -20 -38 -42
-71 -42 -27 0 -69 23 -95 52 -36 39 -54 157 -58 389 -2 105 -6 133 -27 184
l-24 60 -88 1 c-124 1 -122 4 -132 -219 -8 -202 -4 -216 70 -267 52 -35 63
-65 46 -121 -16 -54 -55 -73 -133 -66 -34 3 -75 0 -100 -8 -49 -14 -81 -6 -98
25 -18 34 -4 66 46 99 25 17 49 31 55 31 24 0 31 70 34 365 2 171 7 355 10
410 7 102 -8 315 -25 359 -5 13 -22 30 -37 38 -25 12 -28 19 -31 65 -3 44 0
53 20 67 12 9 38 16 58 17 19 0 44 4 55 9 11 5 29 7 40 4 11 -3 37 -8 58 -11z
m822 7 c39 0 108 2 155 5 104 8 158 -7 179 -51 11 -21 16 -83 19 -236 4 -181
2 -211 -12 -233 -19 -29 -36 -33 -36 -7 0 9 -8 31 -17 47 -15 28 -19 47 -39
163 -4 27 -2 65 6 98 12 51 12 57 -7 82 -29 39 -76 41 -133 4 l-45 -28 2 -160
c2 -154 10 -416 17 -577 1 -43 0 -80 -4 -82 -12 -7 -4 -133 13 -204 15 -69 34
-91 77 -91 14 0 36 -7 49 -16 21 -15 23 -22 18 -66 -8 -67 -20 -78 -78 -78
-27 0 -82 -9 -121 -20 -89 -24 -170 -26 -192 -4 -20 20 -22 100 -2 111 8 4 15
17 17 28 3 14 17 23 49 31 74 17 74 19 70 384 -2 173 -3 412 -1 532 l3 216
-23 16 c-35 22 -99 29 -128 14 -54 -29 -63 -55 -66 -199 -2 -127 -15 -212 -34
-223 -15 -10 -30 18 -30 54 0 19 -3 110 -6 203 -5 137 -3 177 9 222 9 30 23
58 31 62 8 5 54 7 102 6 48 -2 120 -3 158 -3z m-8115 -41 c43 -34 50 -52 50
-124 0 -27 7 -77 15 -111 18 -80 37 -260 30 -298 -3 -17 -1 -53 4 -81 6 -27
18 -121 26 -208 15 -155 35 -235 55 -222 5 3 10 19 10 34 0 16 7 45 15 65 12
27 18 101 24 289 5 140 14 265 20 281 7 16 11 45 11 65 0 28 16 248 19 270 1
2 4 1 8 -2 3 -4 17 0 29 8 36 23 103 44 110 33 3 -5 16 -8 27 -6 12 1 37 -8
55 -22 26 -20 32 -30 32 -62 0 -35 -4 -41 -35 -54 -43 -18 -51 -43 -46 -154
10 -266 -2 -974 -17 -993 -10 -12 -3 -14 45 -13 l58 1 3 -37 c3 -29 -2 -43
-22 -63 -28 -28 -61 -31 -134 -14 -63 16 -74 26 -70 68 2 29 9 39 35 50 39 17
44 35 37 136 -3 44 -9 215 -13 380 -5 165 -13 310 -18 323 l-9 24 -12 -26
c-19 -42 -50 -263 -57 -411 -4 -77 -13 -171 -21 -210 -8 -38 -14 -99 -14 -134
0 -83 -32 -174 -66 -190 -14 -6 -26 -11 -28 -11 -19 0 -76 245 -76 323 0 24
-5 69 -10 98 -6 30 -15 114 -20 187 -5 73 -19 177 -31 232 l-23 99 -17 -49
c-12 -35 -15 -60 -9 -91 4 -24 6 -159 4 -299 -5 -327 -5 -309 5 -329 5 -9 21
-23 35 -30 33 -18 38 -35 26 -80 -15 -54 -68 -92 -135 -96 -50 -3 -57 -1 -80
27 -19 23 -25 41 -25 79 0 51 1 53 71 112 17 15 18 42 15 539 -2 288 -7 531
-11 541 -4 10 -20 24 -36 33 -46 23 -39 58 24 116 60 56 75 57 137 7z m1110
22 c20 -10 44 -36 57 -61 13 -23 27 -48 33 -54 31 -39 73 -167 80 -251 5 -49
16 -137 25 -195 18 -111 15 -353 -5 -470 -5 -30 -14 -86 -19 -124 -6 -38 -16
-73 -25 -80 -8 -6 -16 -20 -18 -31 -2 -13 -11 -20 -26 -19 -26 1 -31 -30 -6
-44 27 -15 8 -49 -69 -123 -64 -62 -74 -69 -111 -69 -23 0 -57 5 -76 10 -44
12 -130 85 -130 110 0 10 -8 25 -18 32 -45 32 -115 284 -111 400 1 24 -3 72
-10 108 -24 140 -14 366 25 565 29 151 117 287 176 272 10 -3 18 -1 18 4 0 5
10 9 23 9 12 1 33 7 47 15 35 20 99 18 140 -4z m3806 -12 c57 -44 64 -57 64
-114 0 -29 9 -94 20 -146 11 -52 22 -153 25 -224 3 -72 9 -157 15 -190 5 -33
14 -116 20 -184 12 -128 28 -197 45 -194 6 1 13 17 16 35 3 18 12 47 19 63 7
19 15 124 20 280 5 138 14 266 20 285 6 19 13 67 15 105 2 39 7 104 10 146 l7
75 41 21 c72 36 96 43 103 32 3 -6 16 -9 28 -7 15 3 36 -6 60 -27 34 -29 38
-35 31 -64 -5 -23 -16 -37 -41 -49 -43 -20 -50 -43 -45 -152 11 -258 -1 -974
-18 -993 -11 -14 -6 -15 43 -10 52 5 56 4 64 -18 13 -33 0 -69 -31 -93 -25
-19 -32 -19 -99 -8 -85 15 -98 24 -98 66 0 36 15 56 42 56 30 0 36 31 31 175
-2 77 -6 232 -8 344 -5 283 -16 366 -43 314 -17 -32 -50 -284 -57 -423 -3 -75
-12 -167 -20 -205 -8 -39 -15 -97 -15 -129 0 -84 -27 -164 -62 -182 -15 -8
-29 -14 -31 -14 -19 0 -77 253 -77 332 0 25 -4 69 -10 97 -5 29 -14 116 -19
194 -6 78 -17 165 -25 192 -9 28 -16 62 -16 77 0 37 -16 44 -25 10 -5 -15 -8
-184 -9 -375 l-1 -348 38 -35 c36 -32 39 -37 32 -72 -10 -57 -60 -98 -127
-105 -62 -6 -82 2 -103 43 -31 60 -15 121 42 158 l35 24 -3 251 c-2 139 -2
369 -1 512 1 143 -2 274 -6 290 -5 17 -22 38 -40 50 -35 23 -40 49 -14 82 23
30 92 83 107 83 7 0 30 -14 51 -31z m1814 7 c24 -16 48 -49 77 -107 80 -161
84 -175 88 -256 2 -43 9 -105 17 -138 16 -76 17 -426 0 -510 -6 -33 -14 -90
-17 -128 -4 -37 -13 -74 -21 -81 -8 -8 -19 -27 -24 -41 -8 -20 -15 -26 -30
-22 -15 4 -20 0 -20 -15 0 -11 8 -22 19 -25 13 -3 18 -10 14 -21 -8 -22 -65
-96 -77 -101 -6 -2 -26 -19 -45 -38 -37 -36 -81 -43 -151 -23 -44 12 -130 90
-130 118 0 12 -8 23 -20 27 -11 3 -20 12 -20 18 0 6 -11 34 -24 62 -27 57 -59
223 -57 299 0 28 -3 65 -8 81 -6 17 -12 109 -15 206 -6 160 -4 191 20 330 14
85 32 167 40 184 48 103 104 169 141 164 19 -2 38 4 88 26 49 22 115 18 155
-9z m-4074 -6 c20 -8 41 -7 77 2 49 12 50 12 73 -17 34 -42 53 -115 55 -215 2
-47 7 -103 12 -125 16 -75 -10 -163 -45 -150 -32 13 -43 65 -43 213 0 159 -3
164 -68 143 -17 -6 -62 -12 -99 -14 -37 -1 -70 -6 -74 -10 -13 -12 -70 -7 -90
8 -24 18 -34 19 -34 1 0 -7 -9 -20 -20 -27 -20 -13 -21 -25 -22 -209 -2 -225
3 -246 55 -233 18 4 49 8 69 7 33 0 39 4 48 30 5 16 10 72 10 124 l0 95 32 -7
c17 -3 33 -8 35 -10 5 -4 6 -91 3 -116 -1 -8 1 -117 4 -241 6 -229 1 -279 -28
-279 -19 0 -27 22 -40 115 -10 72 -14 81 -38 93 -36 17 -95 6 -124 -23 -22
-22 -22 -27 -19 -221 1 -110 3 -200 4 -201 0 -1 14 -9 30 -17 22 -12 54 -14
152 -10 68 3 134 7 147 10 40 8 54 62 57 218 3 123 5 141 23 159 25 24 48 17
64 -20 30 -71 -1 -415 -42 -473 -22 -31 -17 -30 -285 -50 -77 -6 -156 -15
-175 -20 -83 -23 -140 4 -140 66 0 40 11 63 52 115 l29 36 5 399 c3 220 5 437
5 484 1 109 -24 192 -61 200 -46 11 -67 92 -31 124 30 27 79 37 210 42 69 2
127 7 130 9 8 9 69 5 97 -5z m3212 -3 c46 5 57 2 128 -38 44 -23 85 -50 91
-58 7 -9 32 -54 55 -101 41 -84 42 -86 42 -195 0 -95 -4 -122 -29 -198 -27
-79 -36 -94 -90 -147 -68 -65 -117 -85 -163 -68 -35 13 -70 6 -106 -23 -19
-15 -24 -25 -17 -32 7 -7 8 -66 4 -171 -7 -191 0 -224 52 -249 19 -9 35 -24
35 -32 0 -8 5 -24 12 -34 8 -14 9 -31 2 -58 l-9 -38 -95 -6 c-52 -3 -110 -10
-129 -14 -41 -10 -61 11 -61 62 0 47 23 87 64 112 19 12 36 27 38 34 2 6 3
109 2 227 -8 673 -7 779 10 805 19 29 12 53 -10 34 -11 -9 -17 -5 -29 25 -12
27 -20 35 -37 33 -19 -2 -23 4 -29 38 -4 23 -3 45 3 52 16 19 105 43 137 37
16 -4 32 -1 35 5 5 7 13 8 25 1 10 -5 41 -7 69 -3z m-278 -117 c0 -5 -4 -10
-10 -10 -5 0 -10 5 -10 10 0 6 5 10 10 10 6 0 10 -4 10 -10z"/>
<path d="M7427 3470 c-18 -26 -7 -53 19 -43 15 6 17 18 5 47 -7 18 -8 18 -24
-4z"/>
<path d="M2497 1780 c-21 -4 -44 -13 -52 -21 -11 -11 -14 -108 -18 -493 -3
-286 -1 -489 4 -505 10 -29 55 -61 85 -61 60 0 164 92 192 170 38 105 67 388
48 478 -7 33 -10 87 -8 120 3 39 -1 68 -11 88 -8 16 -20 60 -28 97 -11 56 -18
71 -39 82 -14 7 -34 22 -44 34 -20 22 -56 25 -129 11z"/>
<path d="M5090 1830 c0 -11 5 -20 10 -20 6 0 10 9 10 20 0 11 -4 20 -10 20 -5
0 -10 -9 -10 -20z"/>
<path d="M8073 1835 c-53 -23 -67 -54 -60 -143 3 -42 1 -107 -5 -144 -9 -50
-9 -76 0 -106 14 -46 32 -56 67 -40 20 9 28 8 43 -5 24 -22 38 -21 72 3 16 11
41 23 57 26 34 7 46 24 80 113 42 111 30 195 -38 266 -38 38 -41 40 -112 41
-42 1 -86 -3 -104 -11z"/>
<path d="M750 1660 c0 -14 5 -32 10 -40 8 -12 10 -10 10 10 0 14 -5 32 -10 40
-8 12 -10 10 -10 -10z"/>
<path d="M947 803 c-12 -11 -7 -33 7 -33 7 0 16 9 19 20 5 19 -12 28 -26 13z"/>
<path d="M1668 1773 c-15 -16 -41 -57 -58 -92 -26 -52 -33 -83 -43 -189 -14
-150 -13 -472 1 -510 6 -15 13 -39 16 -54 4 -16 13 -28 21 -28 8 0 17 -15 21
-37 8 -41 36 -83 101 -150 49 -51 79 -55 127 -18 18 14 35 22 39 19 3 -3 22
26 42 66 49 98 69 248 62 480 -5 175 -44 421 -74 468 -20 32 -85 59 -163 67
-62 6 -66 6 -92 -22z"/>
<path d="M5681 1663 c0 -10 4 -27 9 -38 7 -17 9 -15 9 12 1 17 -3 35 -9 38 -5
3 -10 -2 -9 -12z"/>
<path d="M5877 795 c-8 -19 13 -31 24 -14 13 20 11 29 -5 29 -8 0 -16 -7 -19
-15z"/>
<path d="M7275 1768 c-56 -66 -84 -148 -96 -286 -11 -123 -15 -293 -10 -417 3
-72 25 -143 52 -168 10 -10 19 -27 19 -39 0 -25 35 -78 90 -138 50 -55 94 -63
138 -25 17 14 35 26 39 26 4 -1 23 27 41 62 49 95 65 221 59 472 -4 163 -10
223 -31 325 -15 68 -34 135 -42 148 -21 33 -86 59 -165 67 -65 7 -66 7 -94
-27z"/>
<path d="M3130 1305 c0 -11 53 -85 61 -85 18 0 8 42 -16 65 -22 23 -45 33 -45
20z"/>
<path d="M6617 1820 c-72 -14 -75 -23 -64 -200 3 -48 1 -98 -5 -115 -8 -24 -5
-42 15 -95 l24 -65 84 2 c67 1 87 5 99 20 8 10 27 24 43 30 38 18 50 54 49
153 -1 135 -46 236 -118 266 -36 15 -67 16 -127 4z"/>
</g>
</svg>
