<?xml version="1.0" standalone="no"?>
<!DOCTYPE svg PUBLIC "-//W3C//DTD SVG 20010904//EN"
 "http://www.w3.org/TR/2001/REC-SVG-20010904/DTD/svg10.dtd">
<svg version="1.0" xmlns="http://www.w3.org/2000/svg"
 width="161.000000pt" height="93.000000pt" viewBox="0 0 161.000000 93.000000"
 preserveAspectRatio="xMidYMid meet">

<g transform="translate(0.000000,93.000000) scale(0.100000,-0.100000)"
fill="#000000" stroke="none">
<path d="M0 465 l0 -465 805 0 805 0 0 465 0 465 -805 0 -805 0 0 -465z m1217
324 c100 -32 138 -131 92 -240 -19 -44 -25 -49 -53 -49 l-32 0 0 84 c1 70 -2
89 -20 112 -32 44 -68 66 -116 71 -66 8 -70 -3 -66 -147 l3 -120 -55 0 -55 0
3 113 c4 133 -5 165 -48 173 -69 14 -20 20 143 17 94 -2 186 -8 204 -14z
m-627 -8 c34 -11 79 -32 101 -47 47 -32 96 -103 109 -158 6 -23 15 -49 20 -58
9 -17 4 -18 -68 -18 l-79 0 5 29 c9 61 -75 163 -167 205 -66 29 -204 45 -231
27 -12 -8 -15 -35 -15 -136 l0 -125 -52 0 -53 0 0 118 c0 136 -4 156 -33 170
-16 8 35 11 190 11 181 1 220 -2 273 -18z m435 -510 c0 -129 8 -150 54 -153
14 -1 -28 -4 -94 -8 -66 -4 -124 -5 -129 -2 -5 3 5 10 22 17 29 13 30 17 37
87 4 40 5 93 3 118 l-3 45 -52 3 -51 3 -16 -48 c-39 -116 -146 -202 -278 -223
-70 -11 -208 -3 -208 11 0 5 30 9 68 9 170 0 286 77 308 204 4 27 2 41 -7 47
-8 5 61 9 166 9 l180 0 0 -119z m226 88 c23 -25 28 -39 25 -65 -2 -19 1 -34 6
-34 6 0 8 -7 4 -15 -6 -16 2 -45 13 -45 4 0 5 18 3 40 -3 25 0 40 7 40 6 0 11
-7 11 -15 0 -8 5 -15 12 -15 6 0 3 -9 -8 -21 -10 -12 -18 -23 -16 -25 1 -2 2
-10 2 -16 0 -7 -17 5 -36 27 -49 54 -124 155 -124 166 0 5 16 9 36 9 27 0 43
-7 65 -31z m-1003 -41 l-2 -53 -3 47 c-3 33 -9 48 -21 51 -12 3 -11 5 6 6 20
1 22 -3 20 -51z m-46 -20 c-2 -24 -9 -47 -14 -53 -7 -7 -8 4 -4 30 3 22 5 46
6 53 0 6 3 12 8 12 4 0 6 -19 4 -42z m-35 -110 c-3 -7 -5 -2 -5 12 0 14 2 19
5 13 2 -7 2 -19 0 -25z m46 -60 c-11 -19 -18 -4 -20 40 l-1 47 13 -40 c7 -22
10 -43 8 -47z m1163 70 c4 -7 3 -8 -4 -4 -7 4 -12 2 -12 -3 0 -11 14 -15 39
-11 11 1 10 -2 -3 -15 -15 -15 -17 -15 -32 0 -9 8 -13 22 -10 30 7 18 12 19
22 3z m-1113 -20 c6 -22 2 -36 -8 -26 -3 3 -7 15 -10 27 -5 28 11 27 18 -1z
m-88 -48 c-12 -19 -22 -10 -17 16 4 22 6 24 14 10 5 -9 6 -21 3 -26z m1175 19
c0 -14 -17 -10 -23 5 -4 10 -1 13 9 9 7 -3 14 -9 14 -14z m-1056 -14 c-4 -8
-13 -15 -20 -15 -12 0 -12 3 -2 15 17 19 29 19 22 0z m1161 -5 c15 -7 10 -9
-23 -9 -26 -1 -41 3 -37 9 7 12 32 12 60 0z"/>
</g>
</svg>
